<svg version="1.1" xmlns="http://www.w3.org/2000/svg" viewBox="0 0 253.3 96">
<style type="text/css">.st0{fill-rule:evenodd;clip-rule:evenodd;fill:#008CFF;}.st1{fill-rule:evenodd;clip-rule:evenodd;fill:#F08519;}</style>
<path class="st0" d="M87.5,96h15.4l4-28.7h0.2c2.9,4.8,8.5,6.6,14.9,6.6c14.2,0,24.6-12.7,26.6-26.6c2.1-15.1-6.1-25.7-20.9-25.7
	c-6.3,0.2-12.3,3-16.4,7.8H111l0.9-6.6H97.7L87.5,96z M177.3,58.1h4.6c2.9,0,5.4-2.1,5.8-5l4-28.4h0.1l6.3,33.4h3.7
	c2.2,0,4.3-1.3,5.2-3.3l14.6-30.2h0.1L217,58.1h4.6c2.9,0,5.4-2.1,5.8-5l4.5-32c0.4-3.2-1.8-6.1-5-6.6c-0.3,0-0.5-0.1-0.8-0.1h-4.2
	c-2.2,0-4.3,1.2-5.2,3.2l-12.5,25.2H204L199,19.1c-0.6-2.7-2.9-4.6-5.7-4.6h-4.8c-2.9,0-5.4,2.1-5.8,5L177.3,58.1L177.3,58.1z
	 M12.4,72.6h16l8.2-58.4h20.7L59.4,0H2L0,14.2h20.7L12.4,72.6z M61.6,72.6H77l7-49.8H68.6L61.6,72.6z M172.6,5.1H215
	c3.1,0,6.1,0.2,9.1,0.6c7.2,1,13.4,3.4,17.6,7.3c4,3.8,6.4,9.3,6.4,16.8c0,2-0.1,4-0.4,6c-1.2,8.9-5.8,17-12.9,22.6
	c-7.6,6-17.6,9.1-27.9,9.1h-43.2L172.6,5.1L172.6,5.1z M215,0c23.4,0,41.5,9.9,37.7,36.5c-3.3,23.5-24.2,36.1-45.8,36.1h-49.1
	L168.1,0L215,0z M111,48.6c1-7.5,6.4-12.6,14-12.6s11.6,5.1,10.6,12.6s-6.4,12.6-14,12.6S110,56,111,48.6L111,48.6z"/>
<path class="st1" d="M71.5,7.1c-0.6,3.3,1.6,6.4,4.8,7c0.4,0.1,0.8,0.1,1.3,0.1c4-0.1,7.4-3.1,8.1-7.1c0.6-3.3-1.6-6.4-4.8-7
	C80.4,0,80,0,79.5,0C75.5,0.1,72.1,3.1,71.5,7.1z"/>
</svg>