<svg 
 xmlns="http://www.w3.org/2000/svg"
 xmlns:xlink="http://www.w3.org/1999/xlink"
 width="178px" height="38px">
<path fill-rule="evenodd"  fill="rgb(175, 175, 175)"
 d="M176.634,30.312 L174.666,35.281 C173.916,37.156 173.119,38.062 172.275,38.000 C171.712,37.969 171.415,37.703 171.384,37.203 C171.415,36.734 171.666,36.484 172.134,36.453 C172.540,36.484 172.759,36.671 172.791,37.016 C172.791,37.078 172.821,37.125 172.884,37.156 C172.915,37.187 172.947,37.172 172.978,37.109 C173.353,36.765 173.681,36.219 173.962,35.469 L171.853,30.359 C171.603,29.797 171.259,29.485 170.822,29.422 L170.822,28.906 L174.103,28.906 L174.103,29.422 C173.634,29.422 173.353,29.485 173.259,29.609 C173.134,29.703 173.150,29.922 173.306,30.266 L174.666,33.734 L176.072,30.172 C176.384,29.641 176.087,29.391 175.181,29.422 L175.181,28.906 L177.759,28.906 L177.759,29.422 C177.259,29.453 176.884,29.750 176.634,30.312 ZM167.934,34.344 C169.590,34.344 170.450,34.844 170.512,35.844 C170.481,37.250 169.403,37.969 167.278,38.000 C165.465,37.969 164.543,37.468 164.512,36.500 C164.512,36.062 164.794,35.703 165.356,35.422 C164.825,35.141 164.575,34.797 164.606,34.391 C164.575,33.891 164.950,33.422 165.731,32.984 C165.044,32.609 164.700,32.000 164.700,31.156 C164.731,29.563 165.591,28.750 167.278,28.719 C167.841,28.719 168.246,28.782 168.497,28.906 L170.325,28.906 L170.325,29.516 L169.294,29.516 C169.669,29.984 169.856,30.516 169.856,31.109 C169.825,32.609 168.996,33.375 167.372,33.406 C166.997,33.406 166.653,33.359 166.341,33.266 C166.028,33.453 165.872,33.672 165.872,33.922 C165.872,34.141 165.996,34.266 166.247,34.297 C166.934,34.360 167.496,34.375 167.934,34.344 ZM167.278,32.891 C168.059,32.860 168.450,32.266 168.450,31.109 C168.450,29.891 168.059,29.266 167.278,29.234 C166.465,29.266 166.059,29.891 166.059,31.109 C166.059,32.297 166.465,32.891 167.278,32.891 ZM165.637,36.266 C165.700,37.046 166.278,37.453 167.372,37.484 C168.684,37.453 169.371,37.093 169.434,36.406 C169.434,35.812 168.825,35.516 167.606,35.516 L166.059,35.516 C165.778,35.734 165.637,35.984 165.637,36.266 ZM161.063,35.609 C158.969,35.578 157.906,34.469 157.875,32.281 C157.937,30.000 159.000,28.812 161.063,28.719 C163.094,28.782 164.140,29.969 164.203,32.281 C164.172,34.438 163.125,35.546 161.063,35.609 ZM161.063,29.234 C159.906,29.266 159.312,30.282 159.281,32.281 C159.281,34.125 159.875,35.062 161.063,35.094 C162.218,35.062 162.797,34.125 162.797,32.281 C162.797,30.282 162.218,29.266 161.063,29.234 ZM153.956,35.000 C154.769,35.062 155.144,34.625 155.081,33.687 L155.081,28.297 C155.144,27.391 154.831,26.969 154.144,27.031 L154.144,26.563 L156.534,25.906 C156.503,26.594 156.488,27.469 156.488,28.531 L156.488,33.641 C156.394,34.641 156.769,35.094 157.613,35.000 L157.613,35.422 L153.956,35.422 L153.956,35.000 ZM150.694,35.609 C148.600,35.578 147.537,34.469 147.506,32.281 C147.568,30.000 148.631,28.812 150.694,28.719 C152.725,28.782 153.771,29.969 153.834,32.281 C153.803,34.438 152.756,35.546 150.694,35.609 ZM150.694,29.234 C149.537,29.266 148.943,30.282 148.912,32.281 C148.912,34.125 149.506,35.062 150.694,35.094 C151.850,35.062 152.428,34.125 152.428,32.281 C152.428,30.282 151.850,29.266 150.694,29.234 ZM143.916,35.000 C144.603,35.062 144.915,34.656 144.853,33.781 L144.853,31.062 C144.853,29.969 144.462,29.422 143.681,29.422 C142.806,29.579 142.212,30.235 141.900,31.391 L141.900,33.781 C141.837,34.656 142.118,35.062 142.744,35.000 L142.744,35.422 L139.603,35.422 L139.603,35.000 C140.259,35.031 140.571,34.625 140.541,33.781 L140.541,30.969 C140.603,30.094 140.290,29.703 139.603,29.797 L139.603,29.281 L141.900,28.719 L141.900,30.078 C142.556,29.172 143.306,28.719 144.150,28.719 C145.493,28.750 146.181,29.516 146.212,31.016 L146.212,33.734 C146.150,34.641 146.462,35.062 147.150,35.000 L147.150,35.422 L143.916,35.422 L143.916,35.000 ZM136.200,35.000 C136.856,35.062 137.168,34.641 137.137,33.734 L137.137,31.062 C137.137,29.969 136.762,29.422 136.012,29.422 C135.075,29.547 134.466,30.282 134.184,31.625 L134.184,33.734 C134.153,34.610 134.450,35.031 135.075,35.000 L135.075,35.422 L131.887,35.422 L131.887,35.000 C132.544,35.062 132.856,34.641 132.825,33.734 L132.825,28.203 C132.887,27.329 132.575,26.922 131.887,26.984 L131.887,26.469 L134.278,25.859 C134.215,26.672 134.184,27.531 134.184,28.437 L134.184,30.031 C134.809,29.188 135.559,28.750 136.434,28.719 C137.778,28.750 138.465,29.500 138.497,30.969 L138.497,33.734 C138.434,34.610 138.747,35.031 139.434,35.000 L139.434,35.422 L136.200,35.422 L136.200,35.000 ZM128.766,35.000 C129.546,35.000 130.219,34.547 130.781,33.641 L131.203,33.922 C130.547,35.047 129.656,35.609 128.531,35.609 C126.469,35.578 125.421,34.469 125.391,32.281 C125.484,30.031 126.531,28.844 128.531,28.719 C130.094,28.782 130.922,29.344 131.016,30.406 C130.984,30.906 130.718,31.172 130.219,31.203 C129.781,31.172 129.546,30.953 129.516,30.547 C129.516,30.391 129.546,30.250 129.609,30.125 C129.703,29.969 129.703,29.828 129.609,29.703 C129.390,29.391 129.047,29.234 128.578,29.234 C127.453,29.360 126.859,30.359 126.797,32.234 C126.797,34.079 127.453,35.000 128.766,35.000 ZM122.034,35.000 C122.847,35.000 123.534,34.547 124.097,33.641 L124.519,33.922 C123.893,35.047 122.987,35.609 121.800,35.609 C119.800,35.546 118.769,34.454 118.706,32.328 C118.769,30.016 119.753,28.812 121.659,28.719 C123.503,28.782 124.440,29.938 124.472,32.188 L120.113,32.188 C120.113,34.032 120.753,34.969 122.034,35.000 ZM123.066,31.578 C123.034,30.047 122.550,29.266 121.613,29.234 C120.644,29.297 120.143,30.078 120.113,31.578 L123.066,31.578 ZM115.913,26.609 L115.303,26.609 L115.303,33.547 C115.178,34.610 115.647,35.094 116.709,35.000 L116.709,35.422 L112.491,35.422 L112.491,35.000 C113.553,35.094 114.021,34.610 113.897,33.547 L113.897,26.609 L113.194,26.609 C112.163,26.360 111.475,27.359 111.131,29.609 L110.616,29.469 L110.803,26.094 L118.397,26.094 L118.584,29.422 L118.069,29.516 C117.756,27.359 117.038,26.391 115.913,26.609 ZM103.622,35.609 C102.653,35.609 102.169,35.125 102.169,34.156 L102.169,29.469 L101.372,29.469 L101.372,28.953 C102.372,28.985 102.919,28.266 103.012,26.797 L103.528,26.797 L103.528,28.953 L105.075,28.953 L105.075,29.469 L103.528,29.469 L103.528,33.828 C103.528,34.578 103.762,34.938 104.231,34.906 C104.481,34.906 104.778,34.766 105.122,34.484 L105.403,34.953 C104.778,35.390 104.184,35.609 103.622,35.609 ZM98.016,35.000 C98.703,35.062 99.015,34.656 98.953,33.781 L98.953,31.062 C98.953,29.969 98.562,29.422 97.781,29.422 C96.906,29.579 96.312,30.235 96.000,31.391 L96.000,33.781 C95.937,34.656 96.218,35.062 96.844,35.000 L96.844,35.422 L93.703,35.422 L93.703,35.000 C94.359,35.031 94.671,34.625 94.641,33.781 L94.641,30.969 C94.703,30.094 94.390,29.703 93.703,29.797 L93.703,29.281 L96.000,28.719 L96.000,30.078 C96.656,29.172 97.406,28.719 98.250,28.719 C99.593,28.750 100.281,29.516 100.312,31.016 L100.312,33.734 C100.250,34.641 100.562,35.062 101.250,35.000 L101.250,35.422 L98.016,35.422 L98.016,35.000 ZM90.534,35.000 C91.347,35.000 92.034,34.547 92.597,33.641 L93.019,33.922 C92.393,35.047 91.487,35.609 90.300,35.609 C88.300,35.546 87.269,34.454 87.206,32.328 C87.269,30.016 88.253,28.812 90.159,28.719 C92.003,28.782 92.940,29.938 92.972,32.188 L88.613,32.188 C88.613,34.032 89.253,34.969 90.534,35.000 ZM91.566,31.578 C91.534,30.047 91.050,29.266 90.113,29.234 C89.144,29.297 88.643,30.078 88.613,31.578 L91.566,31.578 ZM83.897,34.344 C85.553,34.344 86.412,34.844 86.475,35.844 C86.444,37.250 85.365,37.969 83.241,38.000 C81.428,37.969 80.506,37.468 80.475,36.500 C80.475,36.062 80.756,35.703 81.319,35.422 C80.787,35.141 80.537,34.797 80.569,34.391 C80.537,33.891 80.912,33.422 81.694,32.984 C81.006,32.609 80.663,32.000 80.663,31.156 C80.693,29.563 81.553,28.750 83.241,28.719 C83.803,28.719 84.209,28.782 84.459,28.906 L86.288,28.906 L86.288,29.516 L85.256,29.516 C85.631,29.984 85.819,30.516 85.819,31.109 C85.787,32.609 84.959,33.375 83.334,33.406 C82.959,33.406 82.615,33.359 82.303,33.266 C81.990,33.453 81.834,33.672 81.834,33.922 C81.834,34.141 81.959,34.266 82.209,34.297 C82.896,34.360 83.459,34.375 83.897,34.344 ZM83.241,32.891 C84.021,32.860 84.413,32.266 84.413,31.109 C84.413,29.891 84.021,29.266 83.241,29.234 C82.428,29.266 82.022,29.891 82.022,31.109 C82.022,32.297 82.428,32.891 83.241,32.891 ZM81.600,36.266 C81.662,37.046 82.240,37.453 83.334,37.484 C84.647,37.453 85.334,37.093 85.397,36.406 C85.397,35.812 84.788,35.516 83.569,35.516 L82.022,35.516 C81.741,35.734 81.600,35.984 81.600,36.266 ZM76.603,35.000 C77.415,35.031 77.790,34.610 77.728,33.734 L77.728,31.109 C77.790,30.297 77.478,29.922 76.791,29.984 L76.791,29.469 L79.181,28.953 C79.181,29.204 79.165,29.532 79.134,29.938 C79.103,30.625 79.088,31.047 79.088,31.203 L79.088,33.734 C79.025,34.641 79.400,35.062 80.213,35.000 L80.213,35.422 L76.603,35.422 L76.603,35.000 ZM77.541,26.797 C77.571,26.234 77.869,25.938 78.431,25.906 C78.994,25.938 79.290,26.234 79.322,26.797 C79.290,27.359 78.994,27.657 78.431,27.687 C77.869,27.657 77.571,27.359 77.541,26.797 ZM72.919,35.000 C73.731,35.062 74.106,34.625 74.044,33.687 L74.044,28.297 C74.106,27.391 73.793,26.969 73.106,27.031 L73.106,26.563 L75.497,25.906 C75.465,26.594 75.450,27.469 75.450,28.531 L75.450,33.641 C75.356,34.641 75.731,35.094 76.575,35.000 L76.575,35.422 L72.919,35.422 L72.919,35.000 ZM69.234,35.000 C70.047,35.062 70.422,34.625 70.359,33.687 L70.359,28.297 C70.422,27.391 70.109,26.969 69.422,27.031 L69.422,26.563 L71.812,25.906 C71.781,26.594 71.766,27.469 71.766,28.531 L71.766,33.641 C71.672,34.641 72.047,35.094 72.891,35.000 L72.891,35.422 L69.234,35.422 L69.234,35.000 ZM66.113,35.000 C66.925,35.000 67.613,34.547 68.175,33.641 L68.597,33.922 C67.971,35.047 67.065,35.609 65.878,35.609 C63.878,35.546 62.847,34.454 62.784,32.328 C62.847,30.016 63.831,28.812 65.738,28.719 C67.581,28.782 68.519,29.938 68.550,32.188 L64.191,32.188 C64.191,34.032 64.831,34.969 66.113,35.000 ZM67.144,31.578 C67.112,30.047 66.628,29.266 65.691,29.234 C64.722,29.297 64.221,30.078 64.191,31.578 L67.144,31.578 ZM61.725,34.906 C61.975,34.906 62.271,34.766 62.616,34.484 L62.897,34.953 C62.271,35.390 61.678,35.609 61.116,35.609 C60.147,35.609 59.663,35.125 59.663,34.156 L59.663,29.469 L58.866,29.469 L58.866,28.953 C59.865,28.985 60.413,28.266 60.506,26.797 L61.022,26.797 L61.022,28.953 L62.569,28.953 L62.569,29.469 L61.022,29.469 L61.022,33.828 C61.022,34.578 61.256,34.938 61.725,34.906 ZM55.509,35.000 C56.196,35.062 56.509,34.656 56.447,33.781 L56.447,31.062 C56.447,29.969 56.056,29.422 55.275,29.422 C54.400,29.579 53.806,30.235 53.494,31.391 L53.494,33.781 C53.431,34.656 53.712,35.062 54.337,35.000 L54.337,35.422 L51.197,35.422 L51.197,35.000 C51.853,35.031 52.165,34.625 52.134,33.781 L52.134,30.969 C52.197,30.094 51.884,29.703 51.197,29.797 L51.197,29.281 L53.494,28.719 L53.494,30.078 C54.150,29.172 54.900,28.719 55.744,28.719 C57.087,28.750 57.775,29.516 57.806,31.016 L57.806,33.734 C57.743,34.641 58.056,35.062 58.744,35.000 L58.744,35.422 L55.509,35.422 L55.509,35.000 ZM46.481,35.000 C47.450,35.062 47.887,34.625 47.794,33.687 L47.794,28.062 C47.856,27.000 47.434,26.516 46.528,26.609 L46.528,26.094 L50.466,26.094 L50.466,26.609 C49.559,26.516 49.137,27.000 49.200,28.062 L49.200,33.687 C49.137,34.625 49.575,35.062 50.512,35.000 L50.512,35.422 L46.481,35.422 L46.481,35.000 ZM36.581,35.000 C37.394,35.062 37.769,34.625 37.706,33.687 L37.706,27.078 L34.425,35.094 L33.816,35.094 L30.909,27.172 L30.909,33.359 C30.816,34.547 31.238,35.094 32.175,35.000 L32.175,35.422 L29.128,35.422 L29.128,35.000 C30.066,35.094 30.488,34.547 30.394,33.359 L30.394,28.062 C30.456,27.000 30.096,26.516 29.316,26.609 L29.316,26.094 L31.988,26.094 L34.613,33.266 L37.519,26.094 L40.191,26.094 L40.191,26.609 C39.409,26.516 39.050,27.000 39.113,28.062 L39.113,33.687 C39.050,34.625 39.425,35.062 40.238,35.000 L40.238,35.422 L36.581,35.422 L36.581,35.000 ZM23.147,35.422 L19.444,35.422 L19.444,35.000 C20.225,35.000 20.600,34.547 20.569,33.641 L20.569,27.969 C20.600,27.000 20.241,26.547 19.491,26.609 L19.491,26.094 L23.100,26.094 C26.381,26.063 28.006,27.610 27.975,30.734 C28.006,33.922 26.397,35.484 23.147,35.422 ZM22.819,26.609 L21.975,26.609 L21.975,35.000 L23.006,35.000 C25.256,35.000 26.397,33.578 26.428,30.734 C26.428,27.985 25.225,26.609 22.819,26.609 ZM15.712,35.609 C14.993,35.609 14.400,35.297 13.931,34.672 L13.931,36.078 C13.868,37.140 14.181,37.609 14.869,37.484 L14.869,38.000 L11.634,38.000 L11.634,37.484 C12.321,37.609 12.634,37.140 12.572,36.078 L12.572,30.875 C12.634,30.063 12.337,29.688 11.681,29.750 L11.681,29.234 L13.931,28.719 L13.931,29.844 C14.525,29.094 15.197,28.719 15.947,28.719 C17.634,28.812 18.509,29.969 18.572,32.188 C18.540,34.407 17.587,35.546 15.712,35.609 ZM15.525,29.281 C14.494,29.375 13.962,30.391 13.931,32.328 C13.962,34.109 14.494,35.015 15.525,35.047 C16.618,35.047 17.166,34.109 17.166,32.234 C17.134,30.329 16.587,29.344 15.525,29.281 ZM7.950,35.000 C8.762,35.031 9.137,34.610 9.075,33.734 L9.075,31.109 C9.137,30.297 8.825,29.922 8.137,29.984 L8.137,29.469 L10.528,28.953 C10.528,29.204 10.512,29.532 10.481,29.938 C10.450,30.625 10.434,31.047 10.434,31.203 L10.434,33.734 C10.371,34.641 10.746,35.062 11.559,35.000 L11.559,35.422 L7.950,35.422 L7.950,35.000 ZM8.887,26.797 C8.918,26.234 9.216,25.938 9.778,25.906 C10.341,25.938 10.637,26.234 10.669,26.797 C10.637,27.359 10.341,27.657 9.778,27.687 C9.216,27.657 8.918,27.359 8.887,26.797 ZM5.391,26.609 L4.781,26.609 L4.781,33.547 C4.656,34.610 5.125,35.094 6.188,35.000 L6.188,35.422 L1.969,35.422 L1.969,35.000 C3.031,35.094 3.500,34.610 3.375,33.547 L3.375,26.609 L2.672,26.609 C1.641,26.360 0.953,27.359 0.609,29.609 L0.094,29.469 L0.281,26.094 L7.875,26.094 L8.062,29.422 L7.547,29.516 C7.234,27.359 6.516,26.391 5.391,26.609 Z"/>
<path fill-rule="evenodd"  fill="rgb(6, 75, 178)"
 d="M114.062,7.986 L118.223,7.986 L118.223,9.158 C117.305,11.762 115.999,13.872 114.307,15.486 C115.771,16.639 117.585,17.518 119.746,18.123 C119.251,18.696 118.835,19.197 118.496,19.627 C116.380,18.768 114.586,17.723 113.115,16.492 C111.403,17.781 109.401,18.878 107.109,19.783 C106.836,19.366 106.491,18.904 106.074,18.396 C108.398,17.641 110.384,16.665 112.031,15.467 C110.586,13.891 109.502,11.828 108.779,9.275 L107.480,9.275 L107.480,7.986 L112.500,7.986 L112.500,4.998 L107.402,4.998 L107.402,3.572 L112.500,3.572 L112.500,0.428 L114.062,0.428 L114.062,3.572 L119.375,3.572 L119.375,4.998 L114.062,4.998 L114.062,7.986 ZM110.283,9.275 C110.869,11.333 111.846,13.071 113.213,14.490 C114.749,13.032 115.853,11.294 116.523,9.275 L110.283,9.275 ZM104.590,9.422 C105.338,9.181 106.068,8.943 106.777,8.709 C106.777,9.334 106.790,9.842 106.816,10.232 C106.081,10.467 105.338,10.705 104.590,10.945 L104.590,17.244 C104.590,18.624 103.939,19.321 102.637,19.334 C102.116,19.347 101.491,19.347 100.762,19.334 C100.684,18.787 100.599,18.234 100.508,17.674 C101.276,17.752 101.855,17.791 102.246,17.791 C102.806,17.791 103.086,17.498 103.086,16.912 L103.086,11.443 C102.207,11.736 101.322,12.036 100.430,12.342 L100.234,10.721 C101.217,10.441 102.168,10.164 103.086,9.891 L103.086,5.682 L100.488,5.682 L100.488,4.334 L103.086,4.334 L103.086,0.545 L104.590,0.545 L104.590,4.334 L106.875,4.334 L106.875,5.682 L104.590,5.682 L104.590,9.422 ZM96.445,19.646 L94.941,19.646 L94.941,13.963 L87.441,14.646 L87.285,13.240 L94.941,12.557 L94.941,0.486 L96.445,0.486 L96.445,12.420 L99.531,12.127 L99.648,13.533 L96.445,13.826 L96.445,19.646 ZM89.609,3.533 L90.508,2.557 C91.953,3.664 93.125,4.634 94.023,5.467 L93.008,6.619 C92.083,5.669 90.950,4.640 89.609,3.533 ZM91.738,11.189 C91.126,10.551 90.033,9.562 88.457,8.221 L89.395,7.225 C90.879,8.384 91.999,9.308 92.754,9.998 L91.738,11.189 ZM85.176,6.229 L88.281,6.229 L88.281,7.615 L85.176,7.615 L85.176,9.822 L86.035,9.041 C86.973,9.848 87.838,10.636 88.633,11.404 L87.539,12.518 C86.706,11.580 85.918,10.766 85.176,10.076 L85.176,19.646 L83.711,19.646 L83.711,10.838 C82.943,12.843 82.031,14.542 80.977,15.936 C80.755,15.402 80.508,14.848 80.234,14.275 C81.719,12.283 82.838,10.063 83.594,7.615 L80.508,7.615 L80.508,6.229 L83.711,6.229 L83.711,3.357 C82.708,3.462 81.764,3.553 80.879,3.631 C80.788,3.149 80.658,2.667 80.488,2.186 C83.014,2.003 85.521,1.717 88.008,1.326 L88.516,2.771 C87.344,2.928 86.230,3.064 85.176,3.182 L85.176,6.229 ZM76.758,19.061 L73.496,19.061 C72.012,19.061 71.270,18.299 71.270,16.775 L71.270,9.959 L72.793,9.959 L72.793,13.182 C74.642,12.492 76.575,11.587 78.594,10.467 L79.473,11.814 C77.344,12.934 75.117,13.927 72.793,14.793 L72.793,16.482 C72.793,17.303 73.112,17.713 73.750,17.713 L76.621,17.713 C77.285,17.713 77.669,17.394 77.773,16.756 C77.865,16.183 77.943,15.330 78.008,14.197 C78.503,14.393 79.010,14.575 79.531,14.744 C79.427,15.890 79.316,16.756 79.199,17.342 C79.030,18.488 78.216,19.061 76.758,19.061 ZM73.867,7.811 L76.348,7.811 C77.168,7.811 77.630,7.472 77.734,6.795 C77.825,6.235 77.904,5.421 77.969,4.354 C78.463,4.549 78.971,4.738 79.492,4.920 C79.388,5.962 79.277,6.808 79.160,7.459 C78.965,8.592 78.086,9.158 76.523,9.158 L73.672,9.158 C72.096,9.158 71.309,8.377 71.309,6.814 L71.309,0.428 L72.832,0.428 L72.832,3.777 C74.622,3.068 76.400,2.212 78.164,1.209 L79.043,2.557 C77.012,3.585 74.941,4.526 72.832,5.379 L72.832,6.502 C72.832,7.374 73.177,7.811 73.867,7.811 ZM68.623,6.043 C65.439,6.277 62.891,6.489 60.977,6.678 L60.352,5.037 C60.924,4.725 61.556,4.139 62.246,3.279 C62.962,2.342 63.665,1.294 64.355,0.135 L65.898,0.701 C64.818,2.264 63.678,3.742 62.480,5.135 C64.434,5.011 66.208,4.884 67.803,4.754 C67.393,4.135 66.953,3.501 66.484,2.850 L67.695,2.088 C68.880,3.624 69.909,5.102 70.781,6.521 C70.286,6.860 69.837,7.160 69.434,7.420 C69.180,6.971 68.909,6.512 68.623,6.043 ZM57.090,8.826 L52.520,8.826 L52.520,9.998 L51.074,9.998 L51.074,2.010 L58.535,2.010 L58.535,9.998 L57.090,9.998 L57.090,8.826 ZM57.090,3.260 L52.520,3.260 L52.520,7.576 L57.090,7.576 L57.090,3.260 ZM46.074,7.166 C47.376,7.804 48.789,8.585 50.312,9.510 L49.414,10.662 C48.086,9.738 46.790,8.950 45.527,8.299 C44.642,9.679 43.164,10.799 41.094,11.658 C40.846,11.255 40.547,10.818 40.195,10.350 C42.526,9.490 44.004,8.305 44.629,6.795 L40.625,6.795 L40.625,5.545 L44.961,5.545 C45.065,4.959 45.130,4.269 45.156,3.475 L43.223,3.475 C42.715,4.191 42.116,4.861 41.426,5.486 C41.178,5.122 40.872,4.731 40.508,4.314 C41.888,3.169 42.832,1.821 43.340,0.271 L44.766,0.584 C44.557,1.157 44.310,1.704 44.023,2.225 L49.863,2.225 L49.863,3.475 L46.621,3.475 C46.582,4.243 46.523,4.933 46.445,5.545 L50.449,5.545 L50.449,6.795 L46.191,6.795 C46.152,6.925 46.113,7.049 46.074,7.166 ZM33.945,19.139 L28.887,19.090 C26.270,19.057 24.440,18.312 23.398,16.854 C23.021,17.153 22.259,17.986 21.113,19.354 L20.273,17.693 C21.087,16.958 21.895,16.248 22.695,15.564 L22.695,8.748 L20.469,8.748 L20.469,7.322 L24.219,7.322 L24.219,15.857 C25.176,17.036 26.702,17.645 28.799,17.684 L33.145,17.752 L39.746,17.596 C39.525,18.116 39.310,18.618 39.102,19.100 L33.945,19.139 ZM36.758,15.252 L28.281,15.252 L28.281,16.131 L26.875,16.131 L26.875,3.494 L31.797,3.494 L31.797,0.350 L33.242,0.350 L33.242,3.494 L38.164,3.494 L38.164,16.014 L36.758,16.014 L36.758,15.252 ZM31.797,4.783 L28.281,4.783 L28.281,8.748 L31.797,8.748 L31.797,4.783 ZM31.797,9.998 L28.281,9.998 L28.281,13.963 L31.797,13.963 L31.797,9.998 ZM36.758,4.783 L33.242,4.783 L33.242,8.748 L36.758,8.748 L36.758,4.783 ZM36.758,9.998 L33.242,9.998 L33.242,13.963 L36.758,13.963 L36.758,9.998 ZM21.074,1.424 L22.285,0.545 C23.249,1.678 24.251,2.947 25.293,4.354 L23.887,5.291 C23.040,3.989 22.103,2.700 21.074,1.424 ZM18.887,14.412 C17.520,13.872 16.325,13.227 15.303,12.479 C14.456,13.012 13.490,13.559 12.402,14.119 C12.207,13.807 11.940,13.423 11.602,12.967 C12.520,12.531 13.385,12.059 14.199,11.551 C13.503,10.893 12.917,10.167 12.441,9.373 L7.432,9.373 C6.865,10.102 6.214,10.799 5.479,11.463 C6.383,11.984 7.272,12.524 8.145,13.084 L7.207,14.275 C6.315,13.644 5.374,13.016 4.385,12.391 C3.395,13.159 2.279,13.885 1.035,14.568 C0.775,14.152 0.462,13.696 0.098,13.201 C2.285,12.153 4.069,10.877 5.449,9.373 L0.488,9.373 L0.488,8.123 L6.465,8.123 C6.895,7.531 7.269,6.906 7.588,6.248 L1.953,6.248 L1.953,4.998 L8.115,4.998 C8.304,4.490 8.473,3.950 8.623,3.377 L1.250,3.377 L1.250,2.127 L8.906,2.127 C9.023,1.554 9.121,0.949 9.199,0.311 L10.781,0.525 C10.684,1.092 10.583,1.626 10.479,2.127 L18.711,2.127 L18.711,3.377 L10.195,3.377 C10.045,3.976 9.889,4.516 9.727,4.998 L18.047,4.998 L18.047,6.248 L9.258,6.248 C8.991,6.893 8.672,7.518 8.301,8.123 L19.512,8.123 L19.512,9.373 L14.043,9.373 C15.352,10.981 17.292,12.140 19.863,12.850 C19.499,13.410 19.173,13.930 18.887,14.412 ZM8.848,15.701 C6.165,16.496 3.919,17.179 2.109,17.752 L1.621,16.346 C3.600,15.851 5.898,15.200 8.516,14.393 C8.620,14.914 8.730,15.350 8.848,15.701 ZM9.375,16.795 L9.375,10.350 L10.898,10.350 L10.898,17.049 C10.898,18.572 10.104,19.334 8.516,19.334 C7.852,19.334 7.057,19.321 6.133,19.295 C6.081,18.852 6.003,18.312 5.898,17.674 C6.875,17.778 7.663,17.830 8.262,17.830 C9.004,17.830 9.375,17.485 9.375,16.795 ZM18.437,16.600 L17.734,18.064 C15.612,17.166 13.424,16.339 11.172,15.584 L11.777,14.393 C14.121,15.109 16.341,15.844 18.437,16.600 ZM56.621,19.666 L55.176,19.666 L55.176,18.787 L44.980,18.787 L44.980,19.666 L43.535,19.666 L43.535,10.799 L56.621,10.799 L56.621,19.666 ZM55.176,12.049 L44.980,12.049 L44.980,14.197 L55.176,14.197 L55.176,12.049 ZM55.176,15.408 L44.980,15.408 L44.980,17.537 L55.176,17.537 L55.176,15.408 ZM69.375,17.088 C69.375,18.494 68.724,19.197 67.422,19.197 C66.849,19.210 66.113,19.217 65.215,19.217 C65.150,18.813 65.052,18.318 64.922,17.732 C65.742,17.797 66.400,17.830 66.895,17.830 C67.533,17.830 67.852,17.498 67.852,16.834 L67.852,15.213 L62.969,15.213 L62.969,19.373 L61.445,19.373 L61.445,7.850 L69.375,7.850 L69.375,17.088 ZM67.852,9.100 L62.969,9.100 L62.969,10.975 L67.852,10.975 L67.852,9.100 ZM67.852,12.146 L62.969,12.146 L62.969,14.041 L67.852,14.041 L67.852,12.146 Z"/>
</svg>