<!--Scalable Vector Graphic-->
<svg 
 xmlns="http://www.w3.org/2000/svg"
 xmlns:xlink="http://www.w3.org/1999/xlink"
 width="33px" height="33px">
<path fill-rule="evenodd"  fill="rgb(2, 66, 139)"
 d="M-0.000,-0.000 L18.588,-0.000 L22.000,3.000 L29.700,28.050 L21.250,14.864 L3.300,28.875 L21.000,5.000 L18.000,2.000 L2.000,2.000 L2.000,31.000 L31.000,31.000 L31.000,2.000 L23.000,2.000 L23.000,-0.000 L33.000,-0.000 L33.000,33.000 L-0.000,33.000 L-0.000,-0.000 Z"/>
<path fill-rule="evenodd"  fill="rgb(252, 153, 1)"
 d="M15.000,14.000 C15.000,14.000 19.823,19.851 24.000,15.000 C24.000,15.000 18.667,22.454 25.000,30.000 L10.000,30.000 C10.000,30.000 22.218,25.143 15.000,14.000 Z"/>
</svg>