<!--Scalable Vector Graphic-->
<svg 
 xmlns="http://www.w3.org/2000/svg"
 xmlns:xlink="http://www.w3.org/1999/xlink"
 width="119px" height="26px">
<path fill-rule="evenodd"  fill="rgb(2, 66, 139)"
 d="M117.990,8.796 C117.389,9.579 116.547,10.081 115.464,10.301 C116.513,10.597 117.317,11.094 117.876,11.792 C118.435,12.491 118.714,13.356 118.714,14.389 C118.714,15.354 118.521,16.228 118.136,17.010 C117.751,17.793 117.199,18.434 116.479,18.934 C115.912,19.323 115.212,19.598 114.378,19.759 C113.545,19.920 112.146,20.000 110.183,20.000 L106.107,20.000 L108.545,1.414 L112.557,1.414 C114.012,1.414 115.072,1.497 115.737,1.662 C116.401,1.827 116.970,2.108 117.444,2.506 C117.918,2.912 118.278,3.401 118.523,3.972 C118.769,4.543 118.892,5.172 118.892,5.857 C118.892,7.034 118.591,8.014 117.990,8.796 ZM109.332,17.448 L111.198,17.448 C112.044,17.448 112.677,17.419 113.096,17.359 C113.515,17.300 113.881,17.203 114.194,17.067 C114.694,16.839 115.087,16.483 115.375,16.001 C115.663,15.519 115.807,14.964 115.807,14.338 C115.807,13.365 115.504,12.679 114.899,12.281 C114.294,11.884 113.136,11.685 111.427,11.685 L110.081,11.685 L109.332,17.448 ZM115.312,4.467 C114.761,4.108 113.695,3.928 112.112,3.928 L111.097,3.928 L110.424,9.158 L111.490,9.158 C113.251,9.158 114.465,8.942 115.134,8.511 C115.802,8.079 116.137,7.351 116.137,6.327 C116.137,5.447 115.862,4.827 115.312,4.467 ZM98.985,20.000 L100.153,11.113 L91.178,11.113 L90.010,20.000 L87.103,20.000 L89.540,1.414 L92.460,1.414 L91.521,8.460 L100.509,8.460 L101.423,1.414 L104.368,1.414 L101.893,20.000 L98.985,20.000 ZM77.606,15.239 L77.911,12.802 L84.411,12.802 L84.106,15.239 L77.606,15.239 ZM71.944,10.542 L71.944,10.098 C71.944,9.725 71.953,9.366 71.970,9.019 C71.987,8.672 72.012,8.320 72.046,7.965 C71.936,8.303 71.786,8.650 71.595,9.006 C71.405,9.361 71.127,9.810 70.764,10.352 L64.061,20.749 L60.214,10.377 C60.121,10.140 60.019,9.842 59.909,9.482 C59.799,9.122 59.651,8.617 59.465,7.965 C59.431,8.490 59.253,9.311 58.932,10.428 L58.919,10.479 L56.126,20.000 L53.168,20.000 L59.274,0.627 L63.781,12.662 C64.010,13.255 64.194,13.765 64.333,14.192 C64.473,14.619 64.598,15.040 64.708,15.455 C64.928,14.973 65.167,14.495 65.425,14.021 C65.683,13.547 65.965,13.077 66.270,12.611 L74.103,0.627 L74.953,20.000 L72.071,20.000 L71.944,10.542 ZM50.045,16.953 C49.495,17.588 48.875,18.123 48.185,18.559 C47.495,18.995 46.744,19.327 45.932,19.556 C45.390,19.708 44.812,19.820 44.199,19.892 C43.585,19.964 42.821,20.000 41.907,20.000 L40.117,20.000 L35.725,20.000 L38.162,1.414 L42.110,1.414 C44.167,1.414 45.690,1.543 46.681,1.801 C47.671,2.060 48.568,2.493 49.372,3.103 C50.371,3.864 51.137,4.844 51.670,6.042 C52.203,7.239 52.470,8.583 52.470,10.072 C52.470,11.384 52.260,12.637 51.841,13.830 C51.422,15.023 50.824,16.064 50.045,16.953 ZM48.877,7.324 C48.496,6.473 47.950,5.777 47.239,5.235 C46.689,4.812 46.067,4.512 45.373,4.334 C44.679,4.156 43.541,4.067 41.958,4.067 L40.714,4.067 L38.975,17.347 L40.041,17.347 C42.131,17.347 43.613,17.249 44.484,17.055 C45.356,16.860 46.109,16.534 46.744,16.077 C47.599,15.459 48.263,14.634 48.737,13.602 C49.211,12.569 49.448,11.435 49.448,10.199 C49.448,9.133 49.258,8.174 48.877,7.324 ZM27.701,20.368 C26.889,20.368 26.135,20.199 25.441,19.860 C24.747,19.522 24.100,19.006 23.499,18.312 L22.534,25.700 L19.805,25.700 L22.141,7.965 L24.743,7.965 L24.616,9.234 C25.166,8.667 25.757,8.244 26.387,7.965 C27.018,7.686 27.701,7.546 28.438,7.546 C30.020,7.546 31.239,8.037 32.094,9.019 C32.949,10.000 33.376,11.397 33.376,13.208 C33.376,15.341 32.851,17.067 31.802,18.388 C30.752,19.708 29.385,20.368 27.701,20.368 ZM29.771,10.910 C29.254,10.275 28.522,9.958 27.574,9.958 C26.457,9.958 25.581,10.390 24.946,11.253 C24.312,12.116 23.994,13.305 23.994,14.820 C23.994,15.844 24.280,16.665 24.851,17.283 C25.422,17.901 26.190,18.210 27.155,18.210 C28.205,18.210 29.032,17.800 29.637,16.979 C30.242,16.158 30.545,15.032 30.545,13.602 C30.545,12.442 30.287,11.545 29.771,10.910 ZM17.443,5.388 C16.969,5.388 16.578,5.231 16.269,4.918 C15.960,4.605 15.806,4.216 15.806,3.750 C15.806,3.301 15.964,2.921 16.282,2.607 C16.599,2.294 16.986,2.138 17.443,2.138 C17.900,2.138 18.283,2.292 18.592,2.601 C18.901,2.910 19.056,3.293 19.056,3.750 C19.056,4.216 18.901,4.605 18.592,4.918 C18.283,5.231 17.900,5.388 17.443,5.388 ZM16.732,20.000 L14.003,20.000 L15.590,7.965 L18.319,7.965 L16.732,20.000 ZM8.861,4.093 L6.754,20.000 L3.821,20.000 L5.929,4.093 L0.914,4.093 L1.270,1.414 L13.965,1.414 L13.597,4.093 L8.861,4.093 Z"/>
</svg>